<mxfile host="app.diagrams.net" agent="Mozilla/5.0 (Windows NT 10.0; Win64; x64) AppleWebKit/537.36 (KHTML, like Gecko) Chrome/140.0.0.0 Safari/537.36" version="28.2.5">
  <diagram name="Page-1" id="-1gzF2Dyj5mBQXq9cQPM">
    <mxGraphModel dx="1042" dy="527" grid="1" gridSize="10" guides="1" tooltips="1" connect="1" arrows="1" fold="1" page="1" pageScale="1" pageWidth="850" pageHeight="1100" math="0" shadow="0">
      <root>
        <mxCell id="0" />
        <mxCell id="1" parent="0" />
        <mxCell id="WS8m4a5kr1yiGVBsjtW7-3" value="&lt;font style=&quot;font-size: 22px;&quot;&gt;seed&lt;/font&gt;" style="ellipse;whiteSpace=wrap;html=1;strokeWidth=2;fontFamily=Arial Narrow;" parent="1" vertex="1">
          <mxGeometry x="10" y="175" width="80" height="50" as="geometry" />
        </mxCell>
        <mxCell id="sPPq37ELEt1q1rfpjTLL-1" value="" style="endArrow=classic;html=1;rounded=0;" edge="1" parent="1">
          <mxGeometry width="50" height="50" relative="1" as="geometry">
            <mxPoint x="93" y="199" as="sourcePoint" />
            <mxPoint x="143" y="198.5" as="targetPoint" />
          </mxGeometry>
        </mxCell>
        <mxCell id="sPPq37ELEt1q1rfpjTLL-2" value="&lt;font style=&quot;font-size: 22px;&quot;&gt;x(n)&lt;/font&gt;&lt;div&gt;&lt;span style=&quot;font-size: 22px;&quot;&gt;&lt;br&gt;&lt;/span&gt;&lt;div&gt;&lt;font style=&quot;font-size: 22px;&quot;&gt;&lt;br&gt;&lt;/font&gt;&lt;/div&gt;&lt;div&gt;&lt;font style=&quot;font-size: 22px;&quot;&gt;x(n+1)&lt;/font&gt;&lt;/div&gt;&lt;/div&gt;" style="whiteSpace=wrap;html=1;aspect=fixed;" vertex="1" parent="1">
          <mxGeometry x="149" y="145" width="110" height="110" as="geometry" />
        </mxCell>
        <mxCell id="sPPq37ELEt1q1rfpjTLL-3" value="" style="endArrow=classic;html=1;rounded=0;" edge="1" parent="1">
          <mxGeometry width="50" height="50" relative="1" as="geometry">
            <mxPoint x="201.5" y="178" as="sourcePoint" />
            <mxPoint x="201.5" y="228" as="targetPoint" />
          </mxGeometry>
        </mxCell>
        <mxCell id="sPPq37ELEt1q1rfpjTLL-6" value="&lt;font style=&quot;font-size: 20px;&quot; face=&quot;Arial Narrow&quot;&gt;a, b, and m&lt;/font&gt;" style="rounded=0;whiteSpace=wrap;html=1;strokeColor=#FFFFFF;" vertex="1" parent="1">
          <mxGeometry x="259" y="195" width="70" height="60" as="geometry" />
        </mxCell>
      </root>
    </mxGraphModel>
  </diagram>
</mxfile>
